<?xml version="1.0" encoding="utf-8"?>
<!-- Generator: Adobe Illustrator 18.0.0, SVG Export Plug-In . SVG Version: 6.00 Build 0)  -->
<!DOCTYPE svg PUBLIC "-//W3C//DTD SVG 1.1//EN" "http://www.w3.org/Graphics/SVG/1.1/DTD/svg11.dtd">
<svg version="1.1" id="Layer_1" xmlns="http://www.w3.org/2000/svg" xmlns:xlink="http://www.w3.org/1999/xlink" x="0px" y="0px"
	 viewBox="0 0 612 792" enable-background="new 0 0 612 792" xml:space="preserve">
<path fill="none" stroke="#000000" stroke-miterlimit="10" d="M249.2,295.4c-6.8,11.3-12.6,23.3-17.3,35.6
	c-1.3,3.3-2.4,7.1-0.9,10.3c1.4,2.9,4.5,4.4,7.3,5.8c11.9,5.5,26.2,11,37.6,4.5c3.4-1.9,6.1-4.8,8.6-7.8c5.1-6.2,9.2-14.2,7-21.9
	c-1.2-4-4-7.3-6.8-10.5c-4.6-5.2-9.2-10.5-15.1-14.3c-5.8-3.8-13.1-5.9-19.8-4.2c-1.7,3.5,2.8,6.8,6.5,8.2c5.5,2.1,11,4.2,16.6,6.2
	c9.4,3.6,19,7.1,29,8.2c12.2,1.2,24.4-1.4,36.4-4c1.9-9.2-8.9-18.4-17.7-14.9c-2.1,19.1-1.1,38.6,2.9,57.4c-5.9,2.3-13,2.7-18.2-0.9
	c-5.2-3.7-6.7-12.4-1.7-16.3c2.6-2.1,6.2-2.4,9.6-2.3c15.5,0.4,30.8,7.1,41.6,18.3"/>
</svg>
